<svg xmlns="http://www.w3.org/2000/svg" width="34.52mm" height="31.4mm" viewBox="0 0 97.84 89.01"><path d="M81.5,10.64A13.6,13.6,0,0,0,70.87,4.5H36.54a13.59,13.59,0,0,0-10.63,6.14L8.74,40.37a13.6,13.6,0,0,0,0,12.27L25.91,82.37A13.61,13.61,0,0,0,36.54,88.5H70.87A13.62,13.62,0,0,0,81.5,82.37L98.66,52.64a13.6,13.6,0,0,0,0-12.27Z" transform="translate(-4.78 -2)" fill="none" stroke="#0d1726" stroke-miterlimit="10" stroke-width="5"/><path d="M43.83,55.5,38.12,72.8H30.83l18.68-55h8.57l18.77,55H69.26L63.39,55.5Zm18-5.55L56.44,34.12c-1.22-3.59-2-6.85-2.86-10h-.16c-.81,3.26-1.71,6.61-2.77,10L45.26,50Z" transform="translate(-4.78 -2)" fill="#0d1726" stroke="#0d1726" stroke-miterlimit="10" stroke-width="4"/></svg>