<svg xmlns="http://www.w3.org/2000/svg" width="34.52mm" height="31.4mm" viewBox="0 0 97.84 89.01"><path d="M83.15,10.64A13.6,13.6,0,0,0,72.52,4.5H38.19a13.6,13.6,0,0,0-10.63,6.14L10.39,40.37a13.66,13.66,0,0,0,0,12.27L27.56,82.37A13.62,13.62,0,0,0,38.19,88.5H72.52a13.62,13.62,0,0,0,10.63-6.13l17.16-29.73a13.6,13.6,0,0,0,0-12.27Z" transform="translate(-6.43 -2)" fill="none" stroke="#0d1726" stroke-miterlimit="10" stroke-width="5"/><path d="M41,18.25a71.19,71.19,0,0,1,13.36-1.17c7.31,0,12,1.26,15.54,4.11a11.89,11.89,0,0,1,4.7,10c0,5.46-3.61,10.25-9.57,12.43v.17c5.37,1.34,11.67,5.8,11.67,14.2a15.29,15.29,0,0,1-4.78,11.34c-4,3.61-10.34,5.29-19.58,5.29A86.62,86.62,0,0,1,41,74Zm7.31,23.19h6.64c7.73,0,12.26-4,12.26-9.49,0-6.64-5-9.24-12.43-9.24a31.65,31.65,0,0,0-6.47.5Zm0,27.13a39.23,39.23,0,0,0,6.13.34C62,68.91,69,66.13,69,57.9,69,50.17,62.31,47,54.33,47h-6Z" transform="translate(-6.43 -2)" fill="#011627" stroke="#0d1726" stroke-miterlimit="10" stroke-width="3"/></svg>