<svg xmlns="http://www.w3.org/2000/svg" width="88.96mm" height="71.66mm" viewBox="0 0 252.17 203.14"><polyline points="129.61 62.3 208.91 62.3 248.71 131.22 208.91 200.14 129.33 200.14 89.86 131.16 129.61 62.3" fill="#fefefc"/><line x1="92.19" y1="126.93" x2="92.19" y2="126.93" fill="#fff" stroke="#1d1d1b" stroke-miterlimit="10"/><polygon points="94.18 123.68 244.35 123.68 248.71 131.22 208.91 200.14 129.33 200.14 89.86 131.16 94.18 123.68" fill="#e52037"/><path d="M300.64,146.23l16,26.91-39.79,68.92H226.12l7.1-31.42c7.09-45.41,31-79.54,47-79.54C295.5,131.1,300.64,146.23,300.64,146.23Z" transform="translate(-67.91 -41.92)" fill="#46b9b0"/><path d="M294.48,212.36s-38.26,2.18-54.63-3.57-20.68-22.53-31.29-44.64-33.67-19.86-33.67-19.86l-17.12,29.65,39.47,69h79.59Z" transform="translate(-67.91 -41.92)" fill="#0d1726"/><polygon points="208.92 62.3 129.33 62.3 89.54 131.22 129.33 200.15 208.92 200.15 248.71 131.22 208.92 62.3" fill="none" stroke="#0d1726" stroke-miterlimit="10" stroke-width="6"/><polygon points="129.04 62.71 89.29 131.56 11.52 115.03 3.21 35.96 75.84 3.63 129.04 62.71" fill="#f59d27" stroke="#0d1726" stroke-miterlimit="10" stroke-width="6"/></svg>